HIERARCHY
ROOT root
{
	OFFSET 0.000000 0.000000 0.000000
	CHANNELS 6 Xposition Yposition Zposition Zrotation Yrotation Xrotation
	JOINT lhip
	{
		OFFSET 0.058581 -0.082280 -0.017664
		CHANNELS 3 Zrotation Yrotation Xrotation
		JOINT lknee
		{
			OFFSET 0.043451 -0.386469 0.008037
			CHANNELS 3 Zrotation Yrotation Xrotation
			JOINT lankle
			{
				OFFSET -0.014790 -0.426874 -0.037428
				CHANNELS 3 Zrotation Yrotation Xrotation
				JOINT ltoe
				{
					OFFSET 0.041054 -0.060286 0.122042
					CHANNELS 3 Zrotation Yrotation Xrotation
					End Site
					{
						OFFSET 0.000000 0.000000 0.000000
					}
				}
			}
		}
	}
	JOINT rhip
	{
		OFFSET -0.060310 -0.090513 -0.013543
		CHANNELS 3 Zrotation Yrotation Xrotation
		JOINT rknee
		{
			OFFSET -0.043257 -0.383688 -0.004843
			CHANNELS 3 Zrotation Yrotation Xrotation
			JOINT rankle
			{
				OFFSET 0.019056 -0.420046 -0.034562
				CHANNELS 3 Zrotation Yrotation Xrotation
				JOINT rtoe
				{
					OFFSET -0.034840 -0.062106 0.130323
					CHANNELS 3 Zrotation Yrotation Xrotation
					End Site
					{
						OFFSET 0.000000 0.000000 0.000000
					}
				}
			}
		}
	}
	JOINT lowerback
	{
		OFFSET 0.004439 0.124404 -0.038385
		CHANNELS 3 Zrotation Yrotation Xrotation
		JOINT upperback
		{
			OFFSET 0.004488 0.137956 0.026820
			CHANNELS 3 Zrotation Yrotation Xrotation
			JOINT chest
			{
				OFFSET -0.002265 0.056032 0.002855
				CHANNELS 3 Zrotation Yrotation Xrotation
				JOINT lowerneck
				{
					OFFSET -0.013390 0.211636 -0.033468
					CHANNELS 3 Zrotation Yrotation Xrotation
					JOINT upperneck
					{
						OFFSET 0.010113 0.088937 0.050410
						CHANNELS 3 Zrotation Yrotation Xrotation
						End Site
						{
							OFFSET 0.000000 0.000000 0.000000
						}
					}
				}
				JOINT lclavicle
				{
					OFFSET 0.071702 0.114000 -0.018898
					CHANNELS 3 Zrotation Yrotation Xrotation
					JOINT lshoulder
					{
						OFFSET 0.122921 0.045205 -0.019046
						CHANNELS 3 Zrotation Yrotation Xrotation
						JOINT lelbow
						{
							OFFSET 0.255332 -0.015649 -0.022946
							CHANNELS 3 Zrotation Yrotation Xrotation
							JOINT lwrist
							{
								OFFSET 0.265709 0.012698 -0.007375
								CHANNELS 3 Zrotation Yrotation Xrotation
								End Site
								{
									OFFSET 0.000000 0.000000 0.000000
								}
							}
						}
					}
				}
				JOINT rclavicle
				{
					OFFSET -0.082954 0.112472 -0.023707
					CHANNELS 3 Zrotation Yrotation Xrotation
					JOINT rshoulder
					{
						OFFSET -0.113228 0.046853 -0.008472
						CHANNELS 3 Zrotation Yrotation Xrotation
						JOINT relbow
						{
							OFFSET -0.260127 -0.014369 -0.031269
							CHANNELS 3 Zrotation Yrotation Xrotation
							JOINT rwrist
							{
								OFFSET -0.269108 0.006794 -0.006027
								CHANNELS 3 Zrotation Yrotation Xrotation
								End Site
								{
									OFFSET 0.000000 0.000000 0.000000
								}
							}
						}
					}
				}
			}
		}
	}
}
MOTION
Frames: 14
Frame Time: 0.033333
0.353269 0.559803 0.857701 28.953518 12.785050 91.047344 16.567410 13.406872 -54.277220 -5.760376 19.116101 70.272226 3.614415 13.961870 -36.174639 0.000000 -0.000000 0.000000 -28.346694 -15.739271 -14.951672 -1.794073 4.813646 25.245065 9.118013 -11.480400 -1.639984 0.000000 -0.000000 0.000000 0.988629 12.648530 38.227710 0.993232 -0.979311 -3.662721 3.441470 3.042022 0.738494 5.690678 -11.599094 -11.114713 9.506681 -14.058734 7.868828 -22.417801 -19.060473 -0.434644 -12.875105 -10.260997 -4.705753 8.213451 -25.414697 -9.858002 38.825695 -23.195381 8.230990 25.975080 28.415905 3.503853 9.322644 18.662663 -4.286366 -5.608171 19.042154 -19.067537 -19.717457 13.181845 5.842030 
0.327883 0.570339 0.867884 28.321158 12.612949 94.264842 17.452198 14.760581 -56.807645 -6.008925 20.296411 66.393465 3.078615 13.729106 -32.766450 0.000000 -0.000000 0.000000 -28.837490 -16.108931 -4.223113 -1.129488 5.215734 28.028597 8.690472 -11.342052 -3.118429 0.000000 -0.000000 0.000000 0.283884 15.430325 36.269853 -0.289865 -0.100518 -3.853438 3.229539 4.830260 0.124390 6.287479 -15.695059 -9.644586 11.945801 -16.480956 5.875045 -19.773537 -18.027700 -0.794836 -9.209660 -4.805344 -6.458342 8.776716 -23.854093 -11.608430 38.113167 -21.964592 7.310730 20.558209 30.789932 1.840337 6.979408 17.812828 -7.471307 -3.615498 18.211977 -17.395513 -18.453366 12.972711 4.842678 
0.303040 0.580340 0.878232 27.551676 12.230359 96.912534 18.236950 15.182009 -58.461526 -5.895246 21.157005 62.170725 2.547195 13.776749 -29.022092 0.000000 -0.000000 0.000000 -27.331368 -16.005876 2.599932 -0.427476 4.880014 30.984662 9.266813 -10.868996 -3.064078 0.000000 -0.000000 0.000000 -1.238999 17.705457 34.542514 -1.365444 0.648898 -3.624480 2.953293 6.182008 -0.579861 6.684519 -17.556711 -8.693187 14.035321 -18.323930 3.895239 -17.397978 -16.990712 -1.651026 -7.094650 -2.042809 -7.408104 9.892015 -23.249396 -12.945359 37.001992 -21.132330 7.200611 17.158328 31.706613 0.756995 6.309962 17.139309 -8.933399 -2.556777 17.725225 -15.868199 -17.567414 12.585648 3.066013 
0.275456 0.593034 0.889232 25.890021 11.763932 99.927202 18.971349 15.305101 -60.182481 -4.988226 21.883031 57.177379 1.924286 14.287200 -24.556978 0.000000 -0.000000 0.000000 -24.478927 -16.705620 6.421023 1.047135 5.615148 34.058042 10.247613 -7.950822 -2.233372 0.000000 -0.000000 0.000000 -3.152906 20.270482 32.644832 -2.633228 1.316680 -3.774192 2.356501 7.247341 -1.360687 6.966688 -18.326361 -8.165979 16.099568 -20.647592 2.284759 -15.175303 -15.852806 -2.913451 -5.378843 -0.057686 -7.774116 10.997227 -23.584500 -13.550338 36.382782 -20.777989 7.451859 14.758716 31.972248 -0.258945 7.106643 16.697314 -9.655211 -2.086837 17.638728 -13.954334 -17.215938 12.311164 1.368702 
0.247546 0.609614 0.899757 23.304735 11.130381 102.891360 20.151442 14.690922 -61.400088 -3.562194 22.842827 51.579404 1.243302 15.515506 -19.486049 0.000000 -0.000000 0.000000 -22.103634 -17.694120 8.791496 2.987725 4.901481 34.286448 11.975515 -4.314155 -0.658372 0.000000 -0.000000 0.000000 -5.221668 22.473863 31.190663 -4.191937 2.198567 -4.265083 1.433603 8.092802 -2.184698 7.016122 -18.472391 -8.265547 18.011526 -23.202822 1.030224 -13.388763 -14.465345 -4.189374 -4.203290 0.906948 -7.661060 12.292498 -24.550316 -14.273175 35.744086 -20.355051 7.174827 13.097103 31.519118 -1.210521 9.124525 17.011473 -9.911645 -1.916544 17.579085 -12.448597 -16.713184 12.002554 -0.773523 
0.220141 0.629230 0.907648 19.514640 10.831599 105.022443 21.834221 14.403883 -61.706806 -1.986410 23.244185 46.294892 -0.071179 17.367283 -14.971613 0.000000 -0.000000 0.000000 -20.300661 -18.772084 10.293312 4.081265 3.442875 32.295880 14.810336 -0.953053 1.358264 0.000000 -0.000000 0.000000 -7.584301 23.934647 29.723778 -5.696918 3.189795 -3.988631 0.821294 9.175365 -3.115997 6.755876 -17.794270 -8.891343 19.334270 -24.808302 0.016232 -12.742495 -12.479044 -6.020272 -3.585068 1.450268 -7.297117 14.097017 -26.231010 -15.522176 34.499950 -19.728492 7.206512 12.735931 31.300014 -1.301372 10.882040 18.230794 -10.564416 -1.422941 17.447773 -12.517303 -16.819620 11.684082 -2.671796 
0.194677 0.651467 0.911586 15.048138 10.599166 106.203572 23.997588 14.142447 -61.252394 -0.864585 23.168105 42.289168 -2.336578 18.424442 -12.784322 0.000000 -0.000000 0.000000 -18.972006 -19.467468 10.428129 4.317496 2.684106 30.392815 18.535604 1.750172 4.649035 0.000000 -0.000000 0.000000 -9.614039 24.945375 28.804837 -6.862212 3.780071 -3.645057 0.407701 10.094627 -3.933829 6.238323 -16.835890 -9.239364 20.421533 -25.607241 -1.182168 -12.870957 -10.324963 -7.675471 -3.614296 2.072624 -6.957703 15.467901 -28.050861 -16.680907 33.642796 -19.180741 7.624894 13.379432 31.467480 -0.755160 13.226152 20.171866 -10.893301 -0.984465 17.112931 -13.750049 -17.140088 11.079804 -4.698870 
0.171526 0.677411 0.909789 10.378805 10.103683 106.762755 26.266334 13.979272 -60.649373 -1.545284 21.940963 38.866628 -6.603063 16.405187 -12.213090 0.000000 -0.000000 0.000000 -18.131209 -19.095064 8.916994 4.374366 2.064801 29.686198 21.055430 4.057910 5.867324 0.000000 -0.000000 0.000000 -10.559554 25.463958 28.887026 -7.675520 4.178381 -3.518990 -0.174401 10.445793 -4.625180 5.642021 -15.061711 -9.417619 20.471291 -26.753654 -1.999075 -13.176861 -8.868906 -8.483381 -4.509578 2.711167 -6.333988 16.031268 -28.652810 -17.126837 32.353508 -19.043117 7.534910 15.062013 31.508665 -0.226316 16.226329 22.739697 -10.713618 -0.870384 16.270202 -14.431120 -17.760403 10.930141 -4.791244 
0.151049 0.706847 0.901035 6.252066 9.295158 106.578214 27.707852 13.848145 -60.506876 -2.554193 19.767123 36.681730 -9.978816 13.865064 -11.503145 0.000000 -0.000000 0.000000 -18.031414 -18.566518 6.284089 4.199307 0.300511 31.484018 18.798625 3.937963 -2.004808 0.000000 -0.000000 0.000000 -10.357410 25.109527 29.509907 -7.651884 4.494433 -2.609330 -0.543037 10.369109 -5.062241 5.308471 -13.603686 -10.025312 19.640603 -27.617708 -1.832947 -14.474320 -8.390557 -8.748916 -5.486933 3.121352 -5.197094 15.877246 -28.466038 -17.190107 31.817655 -18.398267 6.810712 18.076240 31.821982 0.547868 18.690524 24.829100 -10.107175 -0.799037 15.252934 -15.652341 -18.160108 10.865022 -3.701289 
0.134627 0.738416 0.886466 2.426377 8.296133 105.656779 28.416242 14.017419 -60.767894 -3.514006 17.009612 36.418912 -11.866591 11.823345 -11.210354 0.000000 -0.000000 0.000000 -19.461572 -18.313831 3.110284 4.475634 -1.362211 35.720499 15.806825 3.571572 -12.838829 0.000000 -0.000000 0.000000 -8.754555 24.422341 31.425657 -7.055047 4.465158 -1.882059 -0.702614 9.919358 -4.864237 6.006282 -12.497039 -11.127014 18.637196 -28.945862 -1.437694 -16.277786 -8.941977 -8.775513 -6.531046 2.516625 -4.469374 15.119909 -27.557141 -17.251846 32.737292 -17.524533 5.883348 21.876850 32.173506 1.853497 20.332947 25.800739 -9.557130 -0.588806 14.450463 -17.522134 -18.390160 10.453995 -3.406767 
0.121962 0.769657 0.868382 -1.668674 7.483014 104.299172 29.319746 14.955295 -60.800385 -5.571555 14.039115 37.346947 -12.757885 9.101607 -11.177329 0.000000 -0.000000 0.000000 -21.690981 -18.001124 -1.443396 5.877739 -0.923348 42.695411 12.835285 3.778147 -22.429972 0.000000 -0.000000 0.000000 -6.994663 23.210047 33.617634 -5.972402 4.379795 -0.477954 -0.555780 9.427587 -4.918965 7.164614 -11.465192 -12.425097 18.221734 -30.158993 -1.419310 -18.114684 -10.356721 -8.582317 -7.051626 2.038758 -3.951347 14.547815 -27.185418 -17.569428 33.627091 -16.700507 4.569185 26.229809 32.966644 3.952217 20.708485 26.203337 -10.304246 -0.542417 12.525102 -20.097263 -18.059467 10.208467 -2.312117 
0.113728 0.798202 0.850177 -5.523097 6.797683 102.925402 29.739784 16.116509 -61.079557 -7.880967 10.633489 39.127823 -13.692563 5.710695 -11.109529 0.000000 -0.000000 0.000000 -23.973540 -17.684162 -6.424275 7.801309 0.889462 50.099029 10.828402 5.314661 -28.660738 0.000000 -0.000000 0.000000 -5.239643 21.472606 36.749266 -4.358548 3.541978 0.620093 -0.112000 8.783218 -4.855637 8.001430 -9.729545 -14.062625 17.842944 -30.951868 -1.879289 -18.810628 -11.921711 -8.755386 -7.016841 1.351397 -3.649622 13.745395 -26.991929 -17.236139 34.011976 -16.119811 2.835830 29.562613 33.612226 5.505831 21.243001 26.783444 -10.885544 -0.704548 10.487146 -23.221949 -17.810484 9.254758 -2.131138 
0.111744 0.822567 0.835286 -9.228591 6.393453 101.982366 29.232246 17.285381 -62.041222 -9.553842 6.919250 42.054997 -13.513829 3.869196 -11.550883 0.000000 -0.000000 0.000000 -25.724472 -17.429162 -11.905651 9.538787 2.451374 56.925091 10.059810 6.913914 -31.089680 0.000000 -0.000000 0.000000 -3.438369 19.030776 41.215212 -2.870769 2.088228 0.185971 0.511825 7.939361 -4.455640 8.108388 -7.625088 -15.054219 17.684015 -29.848416 -2.757283 -18.067984 -13.742420 -8.890177 -5.513386 1.308841 -4.102391 12.529054 -26.818249 -16.513975 34.809576 -16.212082 2.428175 30.974604 34.244555 5.951145 23.061780 26.836492 -10.540379 -0.888815 9.682887 -25.828463 -17.273385 8.576386 -2.237390 
0.117969 0.842364 0.826482 -13.182035 6.532550 102.121644 28.497367 18.266272 -63.602084 -11.187088 3.051632 45.205821 -13.237317 2.158487 -12.695381 0.000000 -0.000000 0.000000 -26.372785 -16.865676 -18.438974 11.105144 4.227890 61.937396 10.370291 8.665526 -30.325198 0.000000 -0.000000 0.000000 -2.042196 16.134266 46.123937 -1.342544 0.582134 -1.074486 1.503134 7.064582 -3.992085 7.545699 -5.075619 -15.337654 17.499968 -27.233720 -4.299622 -16.417082 -15.227703 -9.153048 -3.281031 1.723775 -4.915265 12.018010 -26.590976 -16.054322 35.774233 -17.518346 2.687151 30.808485 34.770580 5.280238 24.894275 26.850326 -9.538824 -1.075340 9.464261 -26.922583 -15.671724 8.492827 -2.129406 
